<?xml version="1.0" encoding="UTF-8"?> <svg xmlns="http://www.w3.org/2000/svg" width="213" height="55" viewBox="0 0 213 55" fill="none"><g clip-path="url(#clip0_370_76)"><path d="M0 0.81665V28.0946H38.08V0.81665H0ZM26.36 19.6992H11.72V9.21207H26.36V19.6992Z" fill="black"></path><path d="M64.4498 9.21216H49.7998V19.7064H64.4498V9.21216Z" fill="black"></path><path d="M76.1599 0.81665H97.3799C105.17 0.81665 108.73 4.53442 108.73 7.93699C108.73 10.3869 107.41 11.9628 103.89 13.4384C108.33 14.6132 110.75 16.7407 110.75 20.0144C110.75 23.9327 106.75 28.0946 97.4099 28.0946H76.1499L76.1599 0.81665ZM87.7499 21.9485H95.4299C95.9394 21.9803 96.4525 21.9358 96.9366 21.8176C97.4207 21.6995 97.8651 21.5104 98.2415 21.2623C98.6179 21.0143 98.9179 20.7128 99.1225 20.377C99.3272 20.0413 99.4318 19.6787 99.4299 19.3124C99.4154 18.9903 99.3092 18.6737 99.1177 18.3821C98.9262 18.0905 98.6535 17.8301 98.3163 17.6167C97.9792 17.4034 97.5847 17.2417 97.1571 17.1416C96.7295 17.0414 96.2779 17.005 95.8299 17.0344H87.7499V21.9485ZM87.7499 11.5688H93.9199C96.7399 11.5688 97.8599 10.6304 97.8599 9.24788C97.8749 8.95694 97.8026 8.66708 97.6478 8.39788C97.4931 8.12867 97.2594 7.88641 96.9627 7.68744C96.666 7.48848 96.3131 7.33745 95.9279 7.24456C95.5427 7.15168 95.1342 7.1191 94.7299 7.14903H87.8299L87.7499 11.5688Z" fill="black"></path><path d="M122.83 0.81665H135.1L149.1 28.0373H136.47L134.62 23.9614H122.83L121.27 28.0158H108.83L122.83 0.81665ZM128.46 8.90404L125.23 18.0015H132.15L128.46 8.90404Z" fill="black"></path><path d="M168.63 8.91834H180.33C180.33 4.29083 175.47 0 163.94 0C151.29 0 147.38 5.01433 147.38 8.66046C147.38 14.5559 157.46 16.1246 157.77 16.1963C159.27 16.5401 165.53 17.7364 167.09 18.1375C168.45 18.4814 169.74 19.2622 169.74 20.2865C169.74 21.8768 167.09 22.6433 164.89 22.6433C163.47 22.6433 158.71 22.3066 158.71 18.6963H146.63C146.63 23.4885 151.24 28.861 164.16 28.861C178.43 28.861 181.41 22.765 181.41 19.5487C181.383 18.0197 180.707 16.5329 179.47 15.2864C178.234 14.0399 176.497 13.0929 174.49 12.5716C171.59 11.7335 166.77 10.9957 164.36 10.4943C163.14 10.2364 159.08 9.649 159.08 7.87249C159.08 5.60172 164.31 5.89542 163.55 5.89542C165.91 5.88109 168.63 6.83381 168.63 8.91834Z" fill="black"></path><path d="M183.4 0.80957H212.6V8.00871H195.07V12.8081H210.7V19.6849H195.01V28.0875H183.34L183.4 0.80957Z" fill="black"></path><path d="M15.1998 49.6776L15.1798 49.6418L11.5298 39.8137H9.23979L5.53978 49.6776H5.38978L5.37979 49.6418L2.13979 39.8137H0.0297852L4.23978 51.5759H6.42978L10.2598 41.6189H10.3998L10.4098 41.6547L14.1798 51.5759H16.3798L20.7698 39.8137H18.6998L15.3398 49.6776H15.1998Z" fill="black"></path><path d="M30.4901 44.5416C30.0697 44.0602 29.5021 43.6536 28.8301 43.3525C28.0351 43.0242 27.1271 42.8629 26.2101 42.8869C25.4428 42.8838 24.6831 42.9961 23.9801 43.2164C23.3001 43.4346 22.6931 43.7545 22.2001 44.1548C21.6827 44.5715 21.2881 45.0588 21.0401 45.5874C20.7526 46.1568 20.6103 46.7585 20.6201 47.3639C20.6467 47.9735 20.7845 48.578 21.0301 49.1619C21.2387 49.6876 21.5999 50.1758 22.0901 50.5946C22.5766 50.9626 23.1708 51.2488 23.8301 51.4327C24.6124 51.6645 25.4537 51.7768 26.3001 51.7622C27.4968 51.7961 28.6752 51.5442 29.6501 51.0459C30.5584 50.5243 31.1613 49.7781 31.3401 48.9542H29.5401C29.4103 49.452 29.0295 49.8981 28.4701 50.2078C27.8533 50.5034 27.1216 50.6513 26.3801 50.6304C25.7898 50.6399 25.2035 50.5593 24.6601 50.394C24.1991 50.2479 23.7892 50.0301 23.4601 49.7565C23.1457 49.4902 22.9108 49.1806 22.7701 48.8467C22.626 48.486 22.5619 48.1114 22.5801 47.7364H31.5801C31.5999 47.2026 31.5327 46.6689 31.3801 46.1462C31.2255 45.5853 30.9308 45.049 30.5101 44.5631M22.6001 46.576V46.533C22.6292 46.2091 22.7269 45.8902 22.8901 45.5874C23.0535 45.2944 23.2946 45.0268 23.6001 44.7995C23.9032 44.5729 24.2672 44.3926 24.6701 44.2694C25.1146 44.1309 25.5955 44.0625 26.0801 44.0688C26.5549 44.064 27.0255 44.1324 27.4601 44.2694C27.8657 44.3935 28.2354 44.5709 28.5501 44.7923C28.8603 45.0171 29.1081 45.282 29.2801 45.5731C29.4583 45.8807 29.5631 46.2076 29.5901 46.5401V46.5831L22.6001 46.576Z" fill="black"></path><path d="M45.3998 50.6017C44.8299 50.6109 44.266 50.5173 43.7598 50.3295C43.3199 50.1557 42.9432 49.9103 42.6598 49.6132C42.3661 49.304 42.1527 48.9594 42.0298 48.596C41.8986 48.2114 41.8315 47.8171 41.8298 47.4212C41.832 46.995 41.8957 46.5701 42.0198 46.1533C42.1289 45.7678 42.3393 45.4008 42.6398 45.0716C42.9455 44.7573 43.3541 44.5015 43.8298 44.3266C44.3947 44.1261 45.0196 44.0277 45.6498 44.0401C46.3709 44.0204 47.0787 44.1826 47.6498 44.4986C48.1646 44.8274 48.5157 45.2675 48.6498 45.7521H50.5598C50.4987 45.3126 50.315 44.8864 50.0198 44.4986C49.7431 44.1448 49.3648 43.8372 48.9098 43.596C48.4477 43.3454 47.9209 43.1628 47.3598 43.0587C46.7399 42.9413 46.101 42.8834 45.4598 42.8868C44.6175 42.8767 43.7819 42.9964 43.0098 43.2378C42.3313 43.4605 41.7327 43.7913 41.2598 44.2049C40.8012 44.632 40.4617 45.1184 40.2598 45.6375C40.0226 46.2192 39.9047 46.8224 39.9098 47.4284C39.891 48.0169 39.999 48.604 40.2298 49.1691C40.434 49.6945 40.792 50.1829 41.2798 50.6017C41.7563 50.9883 42.3521 51.29 43.0198 51.4828C43.7827 51.7009 44.5985 51.808 45.4198 51.798C46.7208 51.8492 48.0004 51.5445 48.9998 50.9456C49.9163 50.3146 50.4934 49.4726 50.6298 48.5673H48.7398C48.6653 49.146 48.3117 49.6881 47.7398 50.1003C47.0956 50.4933 46.2647 50.6934 45.4198 50.659" fill="black"></path><path d="M56.6598 43.3454C55.8726 43.7295 55.2413 44.2559 54.8298 44.8712H54.7698V43.0875H53.0298V51.576H54.8298V47.8081C54.8325 47.3006 54.9232 46.7953 55.0998 46.3038C55.2337 45.9104 55.4825 45.5417 55.8298 45.2222C56.1889 44.9 56.662 44.6526 57.1998 44.5058C57.8418 44.3431 58.5189 44.2631 59.1998 44.2694V42.8368H59.0598C58.2105 42.8131 57.3708 42.9728 56.6498 43.2952" fill="black"></path><path d="M69.2701 44.5416C68.8453 44.0604 68.2744 43.6539 67.6001 43.3525C66.8051 43.0242 65.8972 42.8629 64.9801 42.8869C64.2127 42.8832 63.4529 42.9955 62.7501 43.2164C62.0758 43.438 61.4731 43.7576 60.9801 44.1548C60.4694 44.5737 60.0786 45.0605 59.8301 45.5874C59.5426 46.1568 59.4003 46.7585 59.4101 47.3639C59.4336 47.9732 59.5681 48.5776 59.8101 49.1619C60.0264 49.6868 60.3905 50.1744 60.8801 50.5946C61.358 50.992 61.9566 51.3057 62.6301 51.5115C63.4118 51.745 64.2536 51.8573 65.1001 51.841C66.2935 51.8739 67.4683 51.6219 68.4401 51.1247C69.3544 50.6057 69.9615 49.8587 70.1401 49.033H68.3201C68.1983 49.5312 67.8201 49.9785 67.2601 50.2866C66.6425 50.5808 65.9114 50.7287 65.1701 50.7092C64.5798 50.7196 63.9932 50.639 63.4501 50.4728C62.986 50.3269 62.5728 50.1092 62.2401 49.8353C61.9251 49.5704 61.6932 49.2602 61.5601 48.9255C61.4041 48.5396 61.3399 48.1376 61.3701 47.7364H70.3701C70.3935 47.2028 70.3297 46.6691 70.1801 46.1462C70.022 45.5849 69.7239 45.0486 69.3001 44.5631M61.4001 46.576V46.533C61.4212 46.209 61.5158 45.8896 61.6801 45.5874C61.8435 45.2944 62.0846 45.0268 62.3901 44.7995C62.6914 44.5714 63.0559 44.3908 63.4601 44.2694C63.9015 44.1317 64.3788 44.0633 64.8601 44.0688C65.3351 44.0624 65.8062 44.1309 66.2401 44.2694C67.0631 44.515 67.7172 44.9836 68.0601 45.5731C68.2416 45.8803 68.3498 46.2072 68.3801 46.5401V46.5831L61.4001 46.576Z" fill="black"></path><path d="M82.3001 50.3582C82.2355 50.1223 82.2087 49.882 82.2201 49.6418V45.2006C82.2457 44.786 82.1107 44.3745 81.8301 44.0115C81.5889 43.7147 81.2444 43.4679 80.8301 43.2951C80.389 43.1238 79.9077 43.0121 79.4101 42.9656C78.2513 42.832 77.0678 42.8538 75.9201 43.0301C75.3567 43.1191 74.8211 43.2818 74.3401 43.51C73.8847 43.7349 73.511 44.0346 73.2501 44.384C72.9663 44.7792 72.8091 45.2148 72.7901 45.659H74.6401C74.6244 45.4066 74.7022 45.1557 74.8655 44.9318C75.0288 44.7079 75.2719 44.5189 75.5701 44.384C76.2224 44.1375 76.9529 44.0165 77.6901 44.033C78.0046 44.0354 78.3186 44.0521 78.6301 44.0831C78.9381 44.1152 79.2358 44.1855 79.5101 44.2908C79.7812 44.3917 80.0067 44.5457 80.1601 44.735C80.347 44.9701 80.4372 45.2383 80.4201 45.5086C80.4311 45.6268 80.4054 45.7452 80.3449 45.8555C80.2844 45.9657 80.1905 46.065 80.0701 46.1461C79.8052 46.3036 79.4942 46.4162 79.1601 46.4756C78.737 46.5554 78.3056 46.6105 77.8701 46.6404C77.3901 46.6404 76.8701 46.7335 76.3301 46.8123C75.7901 46.8911 75.3301 46.9627 74.8401 47.063C74.3818 47.1519 73.9486 47.2973 73.5601 47.4928C73.1919 47.6805 72.8877 47.9254 72.6701 48.2092C72.4234 48.5722 72.3066 48.9734 72.3301 49.3768C72.315 49.7512 72.4175 50.1234 72.6301 50.4656C72.8304 50.747 73.1177 50.992 73.4701 51.1819C73.8436 51.3731 74.2644 51.5117 74.7101 51.5903C75.2086 51.6724 75.7186 51.7133 76.2301 51.712C77.0164 51.7166 77.7968 51.6145 78.5301 51.4112C79.2581 51.1943 79.9004 50.8524 80.4001 50.4155L80.5101 50.3223V50.4441C80.4853 50.6189 80.5107 50.7955 80.5847 50.963C80.6586 51.1306 80.7796 51.2855 80.9401 51.4183C81.262 51.6215 81.6816 51.7268 82.1101 51.712C82.5799 51.7296 83.0482 51.6605 83.4701 51.5115V50.5086C83.2951 50.5477 83.1134 50.5694 82.9301 50.5731C82.5801 50.5731 82.3801 50.4871 82.3201 50.308M80.3901 48.5888C80.3831 48.8141 80.3116 49.036 80.1801 49.2407C80.0232 49.4893 79.7949 49.7114 79.5101 49.8925C79.1734 50.1057 78.7831 50.271 78.3601 50.3797C77.8178 50.5169 77.2451 50.5824 76.6701 50.5731C76.3712 50.5732 76.073 50.5516 75.7801 50.5086C75.5113 50.4653 75.2545 50.3903 75.0201 50.2865C74.8042 50.1796 74.6234 50.0402 74.4901 49.8782C74.3514 49.691 74.2825 49.4812 74.2901 49.2693C74.2727 48.9786 74.3886 48.6918 74.6201 48.4527C74.8515 48.2369 75.1586 48.0688 75.5101 47.9656C75.9011 47.8514 76.3112 47.7744 76.7301 47.7364C77.1501 47.6862 77.6001 47.6433 78.0601 47.6003C78.4838 47.5677 78.9045 47.5174 79.3201 47.4499C79.6789 47.4127 80.021 47.3172 80.3201 47.1705L80.4201 47.1132L80.3901 48.5888Z" fill="black"></path><path d="M101.62 44.5416C101.195 44.0604 100.624 43.6539 99.9501 43.3525C99.155 43.0242 98.2471 42.8629 97.3301 42.8869C96.5626 42.8823 95.8025 42.9947 95.1001 43.2164C94.4243 43.4362 93.8211 43.756 93.3301 44.1548C92.8199 44.5752 92.4262 45.0614 92.1701 45.5874C91.8909 46.1581 91.7521 46.7592 91.7601 47.3639C91.7851 47.9731 91.9196 48.5774 92.1601 49.1619C92.3742 49.6875 92.7386 50.1754 93.2301 50.5946C93.7079 50.992 94.3066 51.3057 94.9801 51.5115C95.7617 51.745 96.6035 51.8573 97.4501 51.841C98.6437 51.875 99.819 51.6229 100.79 51.1247C101.698 50.6016 102.303 49.8566 102.49 49.033H100.67C100.54 49.5307 100.159 49.9769 99.6001 50.2866C98.987 50.5821 98.2585 50.7301 97.5201 50.7092C96.931 50.6896 96.3547 50.5797 95.8301 50.3868C95.366 50.241 94.9527 50.0233 94.6201 49.7493C94.3051 49.4845 94.0732 49.1742 93.9401 48.8396C93.7812 48.4833 93.7068 48.1104 93.7201 47.7364H102.72C102.746 47.2024 102.678 46.6683 102.52 46.1462C102.365 45.5853 102.071 45.049 101.65 44.5631M93.7901 46.576V46.533C93.8064 46.2086 93.9012 45.8886 94.0701 45.5874C94.2335 45.2944 94.4746 45.0268 94.7801 44.7995C95.0717 44.5626 95.4294 44.3723 95.8301 44.2407C96.2746 44.1022 96.7555 44.0338 97.2401 44.0401C97.7149 44.0353 98.1855 44.1037 98.6201 44.2407C99.024 44.3632 99.3909 44.5408 99.7001 44.7636C100.014 44.9864 100.262 45.2519 100.43 45.5444C100.613 45.8514 100.721 46.1785 100.75 46.5115V46.5545L93.7901 46.576Z" fill="black"></path><path d="M116.56 50.6018C115.993 50.6119 115.432 50.5182 114.93 50.3296C114.487 50.156 114.107 49.9107 113.82 49.6133C113.531 49.3024 113.318 48.9583 113.19 48.5961C113.061 48.2113 112.997 47.8169 113 47.4213C112.998 46.9953 113.059 46.5704 113.18 46.1534C113.296 45.7695 113.506 45.4033 113.8 45.0717C114.099 44.7528 114.5 44.49 114.97 44.3052C115.535 44.1047 116.16 44.0063 116.79 44.0187C117.511 43.999 118.219 44.1612 118.79 44.4771C119.312 44.8018 119.665 45.2438 119.79 45.7307H121.71C121.645 45.2907 121.458 44.8645 121.16 44.4771C120.886 44.1241 120.511 43.8165 120.06 43.5746C119.592 43.3265 119.063 43.1442 118.5 43.0373C117.883 42.9203 117.248 42.8625 116.61 42.8654C115.764 42.8547 114.925 42.9744 114.15 43.2164C113.473 43.4412 112.875 43.7716 112.4 44.1835C111.941 44.6106 111.602 45.097 111.4 45.6161C111.166 46.1981 111.052 46.8014 111.06 47.4069C111.053 48.0012 111.171 48.5928 111.41 49.162C111.615 49.6606 111.955 50.1255 112.41 50.5302C112.886 50.9168 113.482 51.2184 114.15 51.4112C114.913 51.6288 115.729 51.7359 116.55 51.7264C117.854 51.7766 119.136 51.4721 120.14 50.874C121.065 50.2569 121.662 49.429 121.83 48.5316H119.95C119.871 49.1094 119.518 49.6503 118.95 50.0645C118.307 50.4589 117.475 50.6592 116.63 50.6233" fill="black"></path><path d="M133.17 43.7535C132.832 43.4716 132.403 43.2528 131.92 43.116C131.281 42.947 130.601 42.8691 129.92 42.8868C129.553 42.8886 129.188 42.9174 128.83 42.9727C128.46 43.0237 128.1 43.1079 127.76 43.2235C127.423 43.3369 127.113 43.4867 126.84 43.6676C126.543 43.8455 126.304 44.068 126.14 44.3195H126.05V39.8137H124.21V51.5759H126.05V46.7765C126.047 46.4095 126.125 46.0445 126.28 45.6948C126.416 45.3732 126.644 45.0755 126.95 44.8209C127.259 44.5708 127.642 44.3727 128.07 44.2407C128.578 44.1025 129.117 44.0344 129.66 44.0401C129.994 44.0278 130.329 44.064 130.643 44.1465C130.958 44.2289 131.246 44.356 131.49 44.52C131.72 44.6917 131.898 44.8953 132.013 45.1184C132.128 45.3414 132.178 45.5791 132.16 45.8166V51.5472H134.01V45.9813C134.014 45.5569 133.947 45.1336 133.81 44.7206C133.696 44.365 133.466 44.0337 133.14 43.7535" fill="black"></path><path d="M146.4 44.5416C145.975 44.0604 145.404 43.6539 144.73 43.3525C143.935 43.0242 143.027 42.8629 142.11 42.8869C141.339 42.8831 140.576 42.9953 139.87 43.2164C139.199 43.4382 138.599 43.7578 138.11 44.1548C137.6 44.5752 137.206 45.0614 136.95 45.5874C136.671 46.1581 136.532 46.7592 136.54 47.3639C136.564 47.9731 136.699 48.5775 136.94 49.1619C137.156 49.6868 137.52 50.1744 138.01 50.5946C138.488 50.992 139.086 51.3057 139.76 51.5115C140.538 51.744 141.377 51.8563 142.22 51.841C143.417 51.8749 144.595 51.6229 145.57 51.1247C146.477 50.6016 147.083 49.8566 147.27 49.033H145.45C145.32 49.5307 144.939 49.9769 144.38 50.2866C143.764 50.5831 143.032 50.7311 142.29 50.7092C141.703 50.7188 141.12 50.6382 140.58 50.4728C140.114 50.3286 139.701 50.1107 139.37 49.8353C139.055 49.5704 138.823 49.2602 138.69 48.9255C138.544 48.5748 138.48 48.2094 138.5 47.8439V47.7364H147.5C147.525 47.2024 147.458 46.6683 147.3 46.1462C147.145 45.5853 146.851 45.049 146.43 44.5631M138.52 46.576V46.533C138.546 46.2073 138.651 45.8873 138.83 45.5874C138.99 45.2948 139.228 45.0272 139.53 44.7995C139.855 44.5669 140.242 44.3835 140.668 44.2605C141.094 44.1374 141.551 44.0771 142.01 44.0831C142.485 44.0767 142.956 44.1452 143.39 44.2837C144.213 44.5293 144.867 44.9979 145.21 45.5874C145.391 45.8947 145.5 46.2216 145.53 46.5545V46.5975L138.52 46.576Z" fill="black"></path><path d="M165.44 43.4384C165.074 43.2368 164.656 43.0884 164.21 43.0015C163.68 42.9088 163.136 42.8631 162.59 42.8654C161.847 42.861 161.114 42.9916 160.46 43.245C159.817 43.4947 159.276 43.8601 158.89 44.3052L158.82 44.384V44.298C158.727 44.0639 158.57 43.8456 158.357 43.6561C158.144 43.4666 157.88 43.3097 157.58 43.1949C156.96 42.9707 156.274 42.8577 155.58 42.8654C154.814 42.8433 154.053 42.9637 153.372 43.2147C152.69 43.4658 152.111 43.839 151.69 44.298H151.62V43.0874H149.83V51.576H151.67V46.3038C151.682 46.0881 151.743 45.8752 151.85 45.6734C152.127 45.1002 152.689 44.6205 153.43 44.3267C153.893 44.1473 154.414 44.0584 154.94 44.0688C155.324 44.059 155.707 44.1104 156.06 44.2192C156.347 44.3036 156.593 44.4453 156.77 44.6275C156.953 44.8144 157.079 45.0267 157.14 45.2507C157.214 45.5052 157.251 45.7645 157.25 46.0244V51.6046H159.09V46.3038C159.073 46.0069 159.139 45.7105 159.285 45.4324C159.431 45.1542 159.654 44.9 159.94 44.6848C160.252 44.4745 160.62 44.3116 161.022 44.2057C161.424 44.0998 161.852 44.0533 162.28 44.0688C162.691 44.0568 163.101 44.1106 163.48 44.2264C163.773 44.3161 164.026 44.4624 164.21 44.649C164.398 44.8333 164.521 45.0469 164.57 45.2722C164.629 45.5087 164.659 45.7484 164.66 45.9886V51.5688H166.51V45.3295C166.522 44.9467 166.423 44.5663 166.22 44.2121C166.043 43.9302 165.772 43.6841 165.43 43.4957" fill="black"></path><path d="M171.59 41.4541H169.75V39.8137H171.59V41.4541ZM171.59 43.0874H169.75V51.5759H171.59V43.0874Z" fill="black"></path><path d="M182.61 51.2033C183.083 51.0019 183.481 50.7218 183.77 50.3867C184.088 50.0042 184.245 49.5638 184.22 49.1188C184.237 48.7672 184.123 48.4187 183.89 48.1088C183.672 47.844 183.379 47.6147 183.03 47.4354C182.659 47.2573 182.255 47.1175 181.83 47.02C181.358 46.9051 180.877 46.8095 180.39 46.7334L179 46.5114C178.571 46.4461 178.15 46.3575 177.74 46.2463C177.394 46.1529 177.076 46.0144 176.8 45.838C176.582 45.68 176.449 45.4715 176.425 45.2498C176.401 45.0281 176.488 44.8075 176.67 44.6274C176.838 44.4807 177.05 44.3631 177.29 44.2836C177.557 44.1962 177.84 44.1359 178.13 44.1045C178.751 44.0183 179.389 44.0183 180.01 44.1045C180.322 44.1543 180.622 44.2364 180.9 44.348C181.167 44.4615 181.396 44.6156 181.57 44.7993C181.747 45.0023 181.85 45.2338 181.87 45.4727H183.72C183.694 45.0415 183.541 44.6191 183.27 44.2334C183.036 43.9082 182.692 43.63 182.27 43.424C181.815 43.2164 181.309 43.0707 180.78 42.9942C180.164 42.911 179.537 42.8702 178.91 42.8724C178.381 42.8761 177.855 42.9217 177.34 43.0085C176.809 43.0956 176.3 43.2406 175.83 43.4383C175.426 43.6201 175.084 43.865 174.83 44.1546C174.556 44.4834 174.418 44.8608 174.43 45.2435C174.392 45.7001 174.596 46.1502 175 46.5042C175.388 46.8195 175.875 47.0649 176.42 47.2205C177.028 47.3957 177.657 47.53 178.3 47.6217C178.938 47.7025 179.568 47.8078 180.19 47.9369C180.711 48.032 181.208 48.1869 181.66 48.3953C181.857 48.4905 182.016 48.6201 182.123 48.7719C182.229 48.9236 182.28 49.0923 182.27 49.2621C182.294 49.519 182.187 49.7734 181.97 49.9784C181.783 50.1579 181.531 50.2968 181.24 50.3796C180.921 50.4759 180.584 50.5386 180.24 50.5658C179.522 50.6563 178.788 50.6563 178.07 50.5658C177.715 50.5181 177.376 50.4233 177.07 50.2864C176.76 50.1605 176.498 49.9807 176.31 49.7635C176.123 49.5268 176.017 49.2617 176 48.9899H174.16C174.18 49.4378 174.333 49.8775 174.61 50.2793C174.872 50.6326 175.249 50.9349 175.71 51.1604C176.185 51.3916 176.718 51.5546 177.28 51.6403C178.5 51.8239 179.76 51.8239 180.98 51.6403C181.552 51.5632 182.1 51.4154 182.6 51.2033" fill="black"></path><path d="M189.21 40.5159H187.37V43.0875H185.37V44.2408H187.37V49.7494C187.355 50.0686 187.409 50.3876 187.53 50.695C187.607 50.9079 187.775 51.0982 188.01 51.2394C188.257 51.378 188.55 51.4692 188.86 51.5044C189.289 51.5578 189.725 51.5817 190.16 51.576H191.6V50.4227H190.76C190.45 50.4227 190.19 50.4227 190 50.4227C189.83 50.4123 189.665 50.373 189.52 50.3081C189.398 50.2451 189.31 50.1541 189.27 50.0503C189.225 49.9142 189.205 49.7745 189.21 49.6348V44.2623H191.67V43.0875H189.21V40.5159Z" fill="black"></path><path d="M88.0102 40.5159H86.1602V43.0875H84.1602V44.2408H86.1602V49.7494C86.15 50.0684 86.2039 50.3869 86.3202 50.695C86.4048 50.9054 86.5712 51.0942 86.8002 51.2394C87.0486 51.3766 87.3406 51.4677 87.6502 51.5044C88.0794 51.5572 88.5147 51.5812 88.9502 51.576H90.3902V50.4227H89.5502C89.2402 50.4227 88.9902 50.4227 88.7902 50.4227C88.6205 50.4099 88.4567 50.3707 88.3102 50.3081C88.1908 50.2447 88.1059 50.1536 88.0702 50.0503C88.0255 49.9142 88.0054 49.7745 88.0102 49.6348V44.2623H90.4702V43.0875H88.0102V40.5159Z" fill="black"></path><path d="M196.25 44.9713H196.18V43.0874H194.43V51.5759H196.28V47.9083C196.273 47.4092 196.35 46.9113 196.51 46.4255C196.649 46.0227 196.908 45.6463 197.27 45.3223C197.629 45.0001 198.102 44.7528 198.64 44.606C199.282 44.4424 199.959 44.3623 200.64 44.3696V42.937C199.748 42.9006 198.862 43.0606 198.1 43.3954C197.319 43.7822 196.692 44.308 196.28 44.9212" fill="black"></path><path d="M206.71 53.7966C206.967 53.4534 207.194 53.0994 207.39 52.7364L212.57 43.0874H210.57L207.21 50.1075H207.07L203.58 43.1161H201.5L206.22 51.6046L205.41 53.0373C205.255 53.2725 205.026 53.4785 204.74 53.639C204.446 53.7833 204.096 53.8561 203.74 53.8467C203.533 53.8474 203.326 53.8232 203.13 53.7751L202.64 53.6605V54.8997C202.84 54.9509 203.048 54.9845 203.26 55C203.49 55.0107 203.72 55.0107 203.95 55C204.337 55.0047 204.722 54.9635 205.09 54.8782C205.412 54.7905 205.707 54.6592 205.96 54.4914C206.251 54.2795 206.497 54.0382 206.69 53.7751" fill="black"></path></g><defs><clipPath id="clip0_370_76"><rect width="212.6" height="55" fill="white"></rect></clipPath></defs></svg> 