<svg xmlns="http://www.w3.org/2000/svg" style="display:none">
  <defs>
    <symbol id="icon-shield-check" viewBox="0 0 24 24">
      <path d="M12 3l7 3v6c0 5-3 8-7 9-4-1-7-4-7-9V6l7-3z"/>
      <path d="M9 12l2 2 4-4"/>
    </symbol>
    <symbol id="icon-route" viewBox="0 0 24 24">
      <circle cx="5" cy="6" r="2.2"/>
      <circle cx="19" cy="18" r="2.2"/>
      <path d="M7 6h6a5 5 0 0 1 5 5v1a5 5 0 0 1-5 5h-6"/>
    </symbol>
    <symbol id="icon-gift" viewBox="0 0 24 24">
      <rect x="4" y="9" width="16" height="11" rx="1.5"/>
      <path d="M4 9h16v4H4z"/>
      <path d="M12 9v11"/>
      <path d="M12 9c-1.2-3-4-3.2-4-1 0 1.2 1.6 1 4 1z"/>
      <path d="M12 9c1.2-3 4-3.2 4-1 0 1.2-1.6 1-4 1z"/>
    </symbol>
    <symbol id="icon-video" viewBox="0 0 24 24">
      <rect x="3" y="6" width="13" height="12" rx="2"/>
      <path d="M16 10.5l5-3v9l-5-3"/>
    </symbol>
    <symbol id="icon-hexagon" viewBox="0 0 24 24">
      <path d="M12 3l7.5 4.3v9.4L12 21l-7.5-4.3V7.3z"/>
      <path d="M12 3v18M4.5 7.3l7.5 4.3 7.5-4.3M4.5 16.7l7.5-4.4 7.5 4.4"/>
    </symbol>
    <symbol id="icon-leaf" viewBox="0 0 24 24">
      <path d="M12 21c-5-1-8-5-8-11 6 0 8 3 8 8v3z"/>
      <path d="M12 21c5-1 8-5 8-11-6 0-8 3-8 8v3z"/>
    </symbol>
    <symbol id="icon-droplet" viewBox="0 0 24 24">
      <path d="M12 3s6 6.5 6 10.5a6 6 0 0 1-12 0C6 9.5 12 3 12 3z"/>
    </symbol>
    <symbol id="icon-seedling" viewBox="0 0 24 24">
      <path d="M12 21v-7"/>
      <path d="M12 14c0-4-3-6-7-6 0 4 3 6 7 6z"/>
      <path d="M12 12c0-3.5 2.5-5.5 6-5.5 0 3.5-2.5 5.5-6 5.5z"/>
    </symbol>
    <symbol id="icon-sprout" viewBox="0 0 24 24">
      <path d="M12 21v-9"/>
      <path d="M12 12c-3.2 0-5.5-2.2-5.5-5.4C9.7 6.6 12 8.8 12 12z"/>
      <path d="M12 15c3.2 0 5.5-2.2 5.5-5.4C14.3 9.6 12 11.8 12 15z"/>
    </symbol>
    <symbol id="icon-pill" viewBox="0 0 24 24">
      <rect x="3.5" y="9.5" width="17" height="5" rx="2.5" transform="rotate(-35 12 12)"/>
      <line x1="10.5" y1="7.7" x2="13.5" y2="16.3" transform="rotate(-35 12 12)"/>
    </symbol>
    <symbol id="icon-cart" viewBox="0 0 24 24">
      <circle cx="9" cy="20" r="1.4"/>
      <circle cx="17" cy="20" r="1.4"/>
      <path d="M3 4h2l2.4 11.2a2 2 0 0 0 2 1.6h7.2a2 2 0 0 0 2-1.6L21 8H6"/>
    </symbol>
    <symbol id="icon-sparkles" viewBox="0 0 24 24">
      <path d="M12 3l1.4 4.6L18 9l-4.6 1.4L12 15l-1.4-4.6L6 9l4.6-1.4z"/>
      <path d="M19 15l.6 2 2 .6-2 .6-.6 2-.6-2-2-.6 2-.6z"/>
    </symbol>
    <symbol id="icon-brush" viewBox="0 0 24 24">
      <path d="M14 3l7 7-8.5 8.5a3 3 0 0 1-4.2 0l-.3-.3a3 3 0 0 1 0-4.2z"/>
      <path d="M4 20c0-3 1-5 4-5"/>
    </symbol>
    <symbol id="icon-flask" viewBox="0 0 24 24">
      <path d="M9 3h6"/>
      <path d="M10 3v6l-5 9a2 2 0 0 0 2 3h10a2 2 0 0 0 2-3l-5-9V3"/>
      <path d="M8.5 15h7"/>
    </symbol>
    <symbol id="icon-car" viewBox="0 0 24 24">
      <path d="M3 16l1.5-5A2 2 0 0 1 6.4 9.5h11.2A2 2 0 0 1 19.5 11L21 16"/>
      <path d="M3 16h18v2a1 1 0 0 1-1 1h-1.5a1 1 0 0 1-1-1v-1H6.5v1a1 1 0 0 1-1 1H4a1 1 0 0 1-1-1z"/>
      <circle cx="7.5" cy="16" r="1.6"/>
      <circle cx="16.5" cy="16" r="1.6"/>
    </symbol>
    <symbol id="icon-factory" viewBox="0 0 24 24">
      <path d="M3 21V11l5 3v-3l5 3V9l6 3v9z"/>
      <path d="M3 21h18"/>
    </symbol>
    <symbol id="icon-warehouse" viewBox="0 0 24 24">
      <path d="M3 21V10l9-5 9 5v11"/>
      <path d="M3 21h18"/>
      <path d="M9 21v-6h6v6"/>
    </symbol>
    <symbol id="icon-truck" viewBox="0 0 24 24">
      <path d="M3 7h10v9H3z"/>
      <path d="M13 10h4l3 3v3h-7z"/>
      <circle cx="7" cy="18" r="1.6"/>
      <circle cx="17" cy="18" r="1.6"/>
    </symbol>
    <symbol id="icon-store" viewBox="0 0 24 24">
      <path d="M4 9V4h16v5"/>
      <path d="M3 9l1.5-5h15L21 9"/>
      <path d="M4 9v11h16V9"/>
      <path d="M9 20v-5h6v5"/>
    </symbol>
    <symbol id="icon-user-check" viewBox="0 0 24 24">
      <circle cx="10" cy="8" r="3.4"/>
      <path d="M4 20c0-3.5 2.7-6 6-6"/>
      <path d="M15.5 15.5l1.8 1.8L21 13.5"/>
    </symbol>
    <symbol id="icon-plug" viewBox="0 0 24 24">
      <path d="M9 3v3M15 3v3"/>
      <path d="M6 6h12v3a6 6 0 0 1-12 0z"/>
      <path d="M12 15v6"/>
    </symbol>
    <symbol id="icon-rocket" viewBox="0 0 24 24">
      <path d="M12 2c3 1 5 4 5 8 0 3-1.5 5.5-3 7l-2 2-2-2c-1.5-1.5-3-4-3-7 0-4 2-7 5-8z"/>
      <circle cx="12" cy="9" r="1.6"/>
      <path d="M9 17l-2 3M15 17l2 3"/>
    </symbol>
    <symbol id="icon-chevron-down" viewBox="0 0 24 24">
      <path d="M6 9l6 6 6-6"/>
    </symbol>
    <symbol id="icon-arrow-right" viewBox="0 0 24 24">
      <path d="M4 12h16M14 6l6 6-6 6"/>
    </symbol>
    <symbol id="icon-menu" viewBox="0 0 24 24">
      <path d="M4 6h16M4 12h16M4 18h16"/>
    </symbol>
    <symbol id="icon-close" viewBox="0 0 24 24">
      <path d="M5 5l14 14M19 5L5 19"/>
    </symbol>
    <symbol id="icon-plus" viewBox="0 0 24 24">
      <path d="M12 5v14M5 12h14"/>
    </symbol>
    <symbol id="icon-check" viewBox="0 0 24 24">
      <path d="M5 12l4 4 10-10"/>
    </symbol>
    <symbol id="icon-mail" viewBox="0 0 24 24">
      <rect x="3" y="5" width="18" height="14" rx="2"/>
      <path d="M4 6.5l8 6 8-6"/>
    </symbol>
    <symbol id="icon-phone" viewBox="0 0 24 24">
      <path d="M6 3h3l2 5-2.5 2a12 12 0 0 0 5.5 5.5l2-2.5 5 2v3a2 2 0 0 1-2 2C11 20 4 13 4 5a2 2 0 0 1 2-2z"/>
    </symbol>
    <symbol id="icon-map-pin" viewBox="0 0 24 24">
      <path d="M12 21s7-6.5 7-11a7 7 0 1 0-14 0c0 4.5 7 11 7 11z"/>
      <circle cx="12" cy="10" r="2.4"/>
    </symbol>
    <symbol id="icon-linkedin" viewBox="0 0 24 24">
      <rect x="3" y="3" width="18" height="18" rx="2"/>
      <path d="M7.5 10v7M7.5 7.2v.1"/>
      <path d="M12 17v-4.5a2.5 2.5 0 0 1 5 0V17"/>
      <path d="M12 12.3V17"/>
    </symbol>
    <symbol id="icon-x" viewBox="0 0 24 24">
      <path d="M5 4h3.2l4.1 5.7L17.2 4H19l-5.4 7.1L19.5 20h-3.2l-4.4-6.1L7 20H5l5.7-7.5L5 4z"/>
    </symbol>
    <symbol id="icon-youtube" viewBox="0 0 24 24">
      <rect x="2.5" y="6" width="19" height="12" rx="3"/>
      <path d="M10.5 9.5v5l4.5-2.5-4.5-2.5z"/>
    </symbol>
    <symbol id="icon-eye-check" viewBox="0 0 24 24">
      <path d="M2.5 12S6 6 12 6s9.5 6 9.5 6-3.5 6-9.5 6-9.5-6-9.5-6z"/>
      <circle cx="12" cy="12" r="2.6"/>
    </symbol>
    <symbol id="icon-bolt" viewBox="0 0 24 24">
      <path d="M13 2 4 14h6l-1 8 9-12h-6z"/>
    </symbol>
    <symbol id="icon-lock" viewBox="0 0 24 24">
      <rect x="5" y="11" width="14" height="9" rx="2"/>
      <path d="M8 11V8a4 4 0 0 1 8 0v3"/>
    </symbol>
    <symbol id="icon-globe" viewBox="0 0 24 24">
      <circle cx="12" cy="12" r="9"/>
      <path d="M3 12h18"/>
      <path d="M12 3a13 13 0 0 1 0 18"/>
      <path d="M12 3a13 13 0 0 0 0 18"/>
    </symbol>
    <symbol id="icon-layers" viewBox="0 0 24 24">
      <path d="M12 3l9 5-9 5-9-5z"/>
      <path d="M3 13l9 5 9-5"/>
    </symbol>
    <symbol id="icon-qr" viewBox="0 0 24 24">
      <rect x="4" y="4" width="6" height="6" rx="1"/>
      <rect x="14" y="4" width="6" height="6" rx="1"/>
      <rect x="4" y="14" width="6" height="6" rx="1"/>
      <path d="M14 14h3v3h-3zM19 14v6M14 19h6"/>
    </symbol>
    <symbol id="icon-radar" viewBox="0 0 24 24">
      <path d="M12 12l4-4"/>
      <circle cx="12" cy="12" r="9"/>
      <path d="M12 3v2M21 12h-2M12 21v-2M3 12h2"/>
    </symbol>
  </defs>
</svg>
