<?xml version="1.0" encoding="UTF-8"?> <svg xmlns="http://www.w3.org/2000/svg" id="Layer_2" data-name="Layer 2" viewBox="0 0 425.2 106.31"><defs><style> .cls-1 { fill: #231f20; } </style></defs><g id="Layer_1-2" data-name="Layer 1"><g><polygon class="cls-1" points="146.6 84.19 146.6 30.64 159.83 30.64 159.83 56.57 177.35 30.64 192.35 30.64 173.45 56.65 193.11 84.19 177.58 84.19 159.83 57.79 159.83 84.19 146.6 84.19"></polygon><path class="cls-1" d="M228.68,63.99c0,6.73,0,13.39.38,20.2h-11.7l-.92-6.35h-.69c-2.45,4.74-6.27,7.11-12.39,7.11-7.5,0-12.47-4.59-12.47-11.48,0-7.65,5.28-12.01,15.99-12.62l9.33-.54v-1.15c0-4.05-2.83-5.66-6.43-5.66-3.83,0-6.35,1.84-7.11,5.2l-11.32-2.52c1.3-7.35,8.03-11.78,18.44-11.78,12.47,0,18.9,5.43,18.9,14.23v5.36ZM216.21,66.97l-6.2.38c-4.67.31-6.73,1.53-6.73,4.44,0,2.37,1.68,3.9,4.9,3.9,4.29,0,7.88-3.14,8.03-8.72"></path><polygon class="cls-1" points="246.35 84.19 228.14 30.64 242.14 30.64 254.53 71.64 255.22 71.64 267.62 30.64 281.31 30.64 263.1 84.19 246.35 84.19"></polygon><path class="cls-1" d="M314.66,84.19l-3.06-10.18h-19.89l-3.06,10.18h-13.54l17.98-53.55h17.44l17.98,53.55h-13.85ZM294.69,63.84h13.92l-6.65-22.19h-.61l-6.66,22.19Z"></path><path class="cls-1" d="M325.67,57.41c0-16.37,9.87-27.54,25.93-27.54,12.7,0,21.27,5.97,24.1,17.6l-13.01,2.83c-1.68-6.35-5.81-9.49-11.09-9.49-7.73,0-12.7,6.2-12.7,16.6s4.97,16.6,12.7,16.6c5.51,0,9.72-3.21,11.55-9.49l13.01,2.83c-2.91,11.71-11.63,17.6-24.56,17.6-16.07,0-25.93-11.17-25.93-27.54"></path><polygon class="cls-1" points="377.69 84.19 377.69 30.64 390.92 30.64 390.92 51.37 411.96 51.37 411.96 30.64 425.2 30.64 425.2 84.19 411.96 84.19 411.96 62.69 390.92 62.69 390.92 84.19 377.69 84.19"></polygon><path class="cls-1" d="M56.11,62.72c-1.7,5.21-5.94,9.22-11.99,9.22-7.94,0-13.05-6.49-13.05-16.96s5.11-16.91,13.05-16.91c3.99,0,7.26,1.84,9.53,4.66,1.96,2.42,2.94,5.5,3.07,8.61.08,2.05.15,4.1.21,6.13,0,1.82-.28,3.6-.82,5.26M123.87,54.91v-6.24h-1.93v4.47h-16.09c-2.47,0-4.46-2.01-4.46-4.47v-16.22h4.46v-1.95h-24.36V0h-24.57v28.04h-1.18c-5.42-8.93-13.86-13.86-24.51-13.86C11.63,14.18,0,28.97,0,54.97s11.63,40.85,31.24,40.85c10.65,0,19.09-4.94,24.51-13.85h1.18v24.34h24.57v-51.22h13.51c2.47,0,4.47,2.01,4.47,4.47v24.63h24.39v-29.28Z"></path><polygon class="cls-1" points="121.94 36.93 123.88 36.93 123.88 32.46 123.88 30.51 121.94 30.51 117.47 30.51 117.47 32.46 121.94 32.46 121.94 36.93"></polygon><polygon class="cls-1" points="111.77 45.04 109.45 42.71 110.31 41.85 111.61 43.15 114.76 38.62 115.76 39.32 111.77 45.04"></polygon></g></g></svg> 